<?xml version="1.0" encoding="utf-8"?><svg xmlns="http://www.w3.org/2000/svg" width="240" height="50" preserveAspectRatio="xMidYMid" xmlns:xlink="http://www.w3.org/1999/xlink" style="margin-right:-2px;display:block;background-repeat-y:initial;background-repeat-x:initial;animation-play-state:paused" ><style type="text/css" style="animation-play-state:paused" >text {
    text-anchor: middle; font-size: 48px; opacity: 0;
  }</style>


<g style="transform-origin:120px 25px;transform:matrix(1, 0, 0, 1, 0, 0);animation-play-state:paused" ><g transform="translate(120,25)" style="transform:matrix(1, 0, 0, 1, 120, 25);animation-play-state:paused" ><g transform="translate(0,0)" style="transform:matrix(1, 0, 0, 1, 0, 0);animation-play-state:paused" ><g class="path" style="transform-origin:-107.975px -3.55481px;animation-timing-function:linear;animation-play-state:paused;animation-name:static-4449d84a-2933-4709-8190-a346bf7c0560;animation-iteration-count:infinite;animation-fill-mode:forwards;animation-duration:1s;animation-delay:-0.594s" ><path d="M3.84-32.16L10.66-33.36L9.98-12.48L10.56 0L3.84 0L4.42-11.66L3.84-32.16" fill="#c5523f" stroke="none" stroke-width="none" transform="translate(-115.22500610351562,13.12519512939454)" style="transform:matrix(1, 0, 0, 1, -115.225, 13.1252);fill:rgb(197, 82, 63);animation-play-state:paused" ></path></g>
<g class="path" style="transform-origin:-81.58px 1.0302px;animation-timing-function:linear;animation-play-state:paused;animation-name:static-4449d84a-2933-4709-8190-a346bf7c0560;animation-iteration-count:infinite;animation-fill-mode:forwards;animation-duration:1s;animation-delay:-0.528s" ><path d="M31.20-12.14L31.20-12.14Q31.20-15.46 30.62-16.56L30.62-16.56L30.62-16.56Q30.05-17.66 27.94-17.66L27.94-17.66L27.94-17.66Q25.82-17.66 23.14-15.98L23.14-15.98L23.14-12.48L23.66-1.20L17.23 0L17.81-11.66L17.81-11.66Q17.62-18.10 16.75-23.18L16.75-23.18L22.56-24.43L22.56-24.43Q22.90-21.65 23.04-19.01L23.04-19.01L23.04-19.01Q23.76-19.97 24.67-20.90L24.67-20.90L24.67-20.90Q25.58-21.84 27.55-23.02L27.55-23.02L27.55-23.02Q29.52-24.19 31.54-24.19L31.54-24.19L31.54-24.19Q33.55-24.19 34.94-22.90L34.94-22.90L34.94-22.90Q36.34-21.60 36.72-19.34L36.72-19.34L36.72-19.34Q40.70-24.19 44.78-24.19L44.78-24.19L44.78-24.19Q47.33-24.19 48.82-22.49L48.82-22.49L48.82-22.49Q50.30-20.78 50.30-17.86L50.30-17.86L50.02-12.48L50.54-0.96L44.06 0.24L44.64-12.14L44.64-12.14Q44.64-15.46 44.06-16.56L44.06-16.56L44.06-16.56Q43.49-17.66 41.42-17.66L41.42-17.66L41.42-17.66Q39.36-17.66 36.77-16.08L36.77-16.08L36.58-12.48L37.10-0.96L30.62 0.24L31.20-12.14" fill="#c5523f" stroke="none" stroke-width="none" transform="translate(-115.22500610351562,13.12519512939454)" style="transform:matrix(1, 0, 0, 1, -115.225, 13.1252);fill:rgb(242, 183, 54);animation-play-state:paused" ></path></g>
<g class="path" style="transform-origin:-49.56px 6.0202px;animation-timing-function:linear;animation-play-state:paused;animation-name:static-4449d84a-2933-4709-8190-a346bf7c0560;animation-iteration-count:infinite;animation-fill-mode:forwards;animation-duration:1s;animation-delay:-0.462s" ><path d="M68.64-24.24L68.64-24.24L68.64-24.24Q71.71-24.24 73.80-21.55L73.80-21.55L73.80-21.55Q75.89-18.86 75.89-14.30L75.89-14.30L75.89-14.30Q75.89-7.92 72.60-3.96L72.60-3.96L72.60-3.96Q69.31 0 64.42 0L64.42 0L64.42 0Q63.41 0 62.16-0.14L62.16-0.14L62.40 9.02L55.82 10.22L56.45-11.66L56.50-11.66L56.50-11.66Q56.30-18.10 55.44-23.18L55.44-23.18L61.25-24.43L61.25-24.43Q61.54-21.89 61.73-19.39L61.73-19.39L61.73-19.39Q61.82-19.63 62.71-20.71L62.71-20.71L62.71-20.71Q63.60-21.79 65.33-23.02L65.33-23.02L65.33-23.02Q67.06-24.24 68.64-24.24zM66.77-18L66.77-18L66.77-18Q64.22-18 61.82-16.61L61.82-16.61L61.82-12.48L62.02-5.62L62.02-5.62Q64.61-5.18 65.95-5.18L65.95-5.18L65.95-5.18Q70.56-5.18 70.56-11.59L70.56-11.59L70.56-11.59Q70.56-18 66.77-18" fill="#c5523f" stroke="none" stroke-width="none" transform="translate(-115.22500610351562,13.12519512939454)" style="transform:matrix(1, 0, 0, 1, -115.225, 13.1252);fill:rgb(73, 146, 85);animation-play-state:paused" ></path></g>
<g class="path" style="transform-origin:-26.57px 1.0302px;animation-timing-function:linear;animation-play-state:paused;animation-name:static-4449d84a-2933-4709-8190-a346bf7c0560;animation-iteration-count:infinite;animation-fill-mode:forwards;animation-duration:1s;animation-delay:-0.396s" ><path d="M78.43-10.03L78.43-10.03Q78.43-16.18 81.74-20.45L81.74-20.45L81.74-20.45Q85.06-24.72 89.50-24.72L89.50-24.72L89.50-24.72Q93.94-24.72 96.41-21.84L96.41-21.84L96.41-21.84Q98.88-18.96 98.88-14.21L98.88-14.21L98.88-14.21Q98.88-7.87 95.69-3.67L95.69-3.67L95.69-3.67Q92.50 0.53 87.65 0.53L87.65 0.53L87.65 0.53Q83.66 0.53 81.05-2.47L81.05-2.47L81.05-2.47Q78.43-5.47 78.43-10.03L78.43-10.03zM93.50-11.71L93.50-11.71L93.50-11.71Q93.50-18.67 88.75-18.67L88.75-18.67L88.75-18.67Q83.81-18.67 83.81-12.14L83.81-12.14L83.81-12.14Q83.81-8.74 85.20-6.82L85.20-6.82L85.20-6.82Q86.59-4.90 88.87-4.90L88.87-4.90L88.87-4.90Q91.15-4.90 92.33-6.65L92.33-6.65L92.33-6.65Q93.50-8.40 93.50-11.71" fill="#c5523f" stroke="none" stroke-width="none" transform="translate(-115.22500610351562,13.12519512939454)" style="transform:matrix(1, 0, 0, 1, -115.225, 13.1252);fill:rgb(24, 117, 229);animation-play-state:paused" ></path></g>
<g class="path" style="transform-origin:-5.45px 0.910195px;animation-timing-function:linear;animation-play-state:paused;animation-name:static-4449d84a-2933-4709-8190-a346bf7c0560;animation-iteration-count:infinite;animation-fill-mode:forwards;animation-duration:1s;animation-delay:-0.33s" ><path d="M102.48-23.18L102.48-23.18L108.29-24.43L108.29-24.43Q108.72-20.74 108.86-17.42L108.86-17.42L108.86-17.42Q113.23-24.19 117.07-24.19L117.07-24.19L116.54-16.70L116.54-16.70Q113.76-16.70 112.15-16.20L112.15-16.20L112.15-16.20Q110.54-15.70 108.86-14.21L108.86-14.21L108.86-12.48L109.39-1.20L102.96 0L103.54-11.66L103.54-11.66Q103.34-18.10 102.48-23.18" fill="#c5523f" stroke="none" stroke-width="none" transform="translate(-115.22500610351562,13.12519512939454)" style="transform:matrix(1, 0, 0, 1, -115.225, 13.1252);fill:rgb(197, 82, 63);animation-play-state:paused" ></path></g>
<g class="path" style="transform-origin:10.92px -1.7298px;animation-timing-function:linear;animation-play-state:paused;animation-name:static-4449d84a-2933-4709-8190-a346bf7c0560;animation-iteration-count:infinite;animation-fill-mode:forwards;animation-duration:1s;animation-delay:-0.264s" ><path d="M119.18-23.23L121.97-23.23L121.97-28.46L128.45-29.71L127.82-23.23L133.63-23.23L133.10-19.30L127.63-19.30L127.39-9.26L127.39-9.26Q127.39-7.01 127.82-6.26L127.82-6.26L127.82-6.26Q128.26-5.52 129.41-5.52L129.41-5.52L129.41-5.52Q130.56-5.52 132.48-6.05L132.48-6.05L132.77-2.64L132.77-2.64Q129.60 0 127.20 0L127.20 0L127.20 0Q124.80 0 123.26-1.75L123.26-1.75L123.26-1.75Q121.73-3.50 121.73-6.34L121.73-6.34L122.02-11.71L121.97-19.30L118.66-19.30L119.18-23.23" fill="#c5523f" stroke="none" stroke-width="none" transform="translate(-115.22500610351562,13.12519512939454)" style="transform:matrix(1, 0, 0, 1, -115.225, 13.1252);fill:rgb(242, 183, 54);animation-play-state:paused" ></path></g>
<g class="path" style="transform-origin:43.655px -3.16981px;animation-timing-function:linear;animation-play-state:paused;animation-name:static-4449d84a-2933-4709-8190-a346bf7c0560;animation-iteration-count:infinite;animation-fill-mode:forwards;animation-duration:1s;animation-delay:-0.198s" ><path d="M155.42 0.53L155.42 0.53L155.42 0.53Q152.02 0.53 145.58 0L145.58 0L146.16-11.66L145.58-33.12L158.40-33.12L158.40-33.12Q164.88-33.12 168.53-29.23L168.53-29.23L168.53-29.23Q172.18-25.34 172.18-18.43L172.18-18.43L172.18-18.43Q172.18-9.70 167.66-4.58L167.66-4.58L167.66-4.58Q163.15 0.53 155.42 0.53zM156.67-27.94L156.67-27.94L156.67-27.94Q153.50-27.94 152.21-27.89L152.21-27.89L151.73-12.48L152.06-4.70L152.06-4.70Q156.10-4.42 157.49-4.42L157.49-4.42L157.49-4.42Q161.28-4.42 163.46-7.49L163.46-7.49L163.46-7.49Q165.65-10.56 165.65-16.42L165.65-16.42L165.65-16.42Q165.65-22.27 163.51-25.10L163.51-25.10L163.51-25.10Q161.38-27.94 156.67-27.94" fill="#c5523f" stroke="none" stroke-width="none" transform="translate(-115.22500610351562,13.12519512939454)" style="transform:matrix(1, 0, 0, 1, -115.225, 13.1252);fill:rgb(73, 146, 85);animation-play-state:paused" ></path></g>
<g class="path" style="transform-origin:69.53px 0.835196px;animation-timing-function:linear;animation-play-state:paused;animation-name:static-4449d84a-2933-4709-8190-a346bf7c0560;animation-iteration-count:infinite;animation-fill-mode:forwards;animation-duration:1s;animation-delay:-0.132s" ><path d="M181.20 0L181.20 0Q178.37 0 176.57-1.80L176.57-1.80L176.57-1.80Q174.77-3.60 174.77-6.65L174.77-6.65L174.77-6.65Q174.77-9.70 177.55-11.93L177.55-11.93L177.55-11.93Q180.34-14.16 184.32-14.16L184.32-14.16L187.58-14.16L187.58-14.98L187.58-14.98Q187.58-17.33 186.62-18.19L186.62-18.19L186.62-18.19Q185.66-19.06 183.02-19.06L183.02-19.06L183.02-19.06Q181.92-19.06 180.41-18.60L180.41-18.60L180.41-18.60Q178.90-18.14 177.02-17.18L177.02-17.18L175.63-20.98L175.63-20.98Q177.70-22.42 180.65-23.57L180.65-23.57L180.65-23.57Q183.60-24.72 185.52-24.72L185.52-24.72L185.52-24.72Q193.06-24.72 193.06-17.42L193.06-17.42L193.06-8.02L193.06-8.02Q193.06-5.33 194.74-2.02L194.74-2.02L189.65 0.14L189.65 0.14Q188.45-2.16 187.87-3.98L187.87-3.98L187.87-3.98Q185.23 0 181.20 0L181.20 0zM183.22-4.90L183.22-4.90L183.22-4.90Q185.14-4.90 187.58-6.86L187.58-6.86L187.58-10.08L187.58-10.08Q185.04-10.66 183.46-10.66L183.46-10.66L183.46-10.66Q180.43-10.66 180.43-7.97L180.43-7.97L180.43-7.97Q180.43-6.58 181.20-5.74L181.20-5.74L181.20-5.74Q181.97-4.90 183.22-4.90" fill="#c5523f" stroke="none" stroke-width="none" transform="translate(-115.22500610351562,13.12519512939454)" style="transform:matrix(1, 0, 0, 1, -115.225, 13.1252);fill:rgb(24, 117, 229);animation-play-state:paused" ></path></g>
<g class="path" style="transform-origin:89.735px -1.7298px;animation-timing-function:linear;animation-play-state:paused;animation-name:static-4449d84a-2933-4709-8190-a346bf7c0560;animation-iteration-count:infinite;animation-fill-mode:forwards;animation-duration:1s;animation-delay:-0.066s" ><path d="M198-23.23L200.78-23.23L200.78-28.46L207.26-29.71L206.64-23.23L212.45-23.23L211.92-19.30L206.45-19.30L206.21-9.26L206.21-9.26Q206.21-7.01 206.64-6.26L206.64-6.26L206.64-6.26Q207.07-5.52 208.22-5.52L208.22-5.52L208.22-5.52Q209.38-5.52 211.30-6.05L211.30-6.05L211.58-2.64L211.58-2.64Q208.42 0 206.02 0L206.02 0L206.02 0Q203.62 0 202.08-1.75L202.08-1.75L202.08-1.75Q200.54-3.50 200.54-6.34L200.54-6.34L200.83-11.71L200.78-19.30L197.47-19.30L198-23.23" fill="#c5523f" stroke="none" stroke-width="none" transform="translate(-115.22500610351562,13.12519512939454)" style="transform:matrix(1, 0, 0, 1, -115.225, 13.1252);fill:rgb(197, 82, 63);animation-play-state:paused" ></path></g>
<g class="path" style="transform-origin:109.08px 0.835196px;animation-timing-function:linear;animation-play-state:paused;animation-name:static-4449d84a-2933-4709-8190-a346bf7c0560;animation-iteration-count:infinite;animation-fill-mode:forwards;animation-duration:1s" ><path d="M220.75 0L220.75 0Q217.92 0 216.12-1.80L216.12-1.80L216.12-1.80Q214.32-3.60 214.32-6.65L214.32-6.65L214.32-6.65Q214.32-9.70 217.10-11.93L217.10-11.93L217.10-11.93Q219.89-14.16 223.87-14.16L223.87-14.16L227.14-14.16L227.14-14.98L227.14-14.98Q227.14-17.33 226.18-18.19L226.18-18.19L226.18-18.19Q225.22-19.06 222.58-19.06L222.58-19.06L222.58-19.06Q221.47-19.06 219.96-18.60L219.96-18.60L219.96-18.60Q218.45-18.14 216.58-17.18L216.58-17.18L215.18-20.98L215.18-20.98Q217.25-22.42 220.20-23.57L220.20-23.57L220.20-23.57Q223.15-24.72 225.07-24.72L225.07-24.72L225.07-24.72Q232.61-24.72 232.61-17.42L232.61-17.42L232.61-8.02L232.61-8.02Q232.61-5.33 234.29-2.02L234.29-2.02L229.20 0.14L229.20 0.14Q228.00-2.16 227.42-3.98L227.42-3.98L227.42-3.98Q224.78 0 220.75 0L220.75 0zM222.77-4.90L222.77-4.90L222.77-4.90Q224.69-4.90 227.14-6.86L227.14-6.86L227.14-10.08L227.14-10.08Q224.59-10.66 223.01-10.66L223.01-10.66L223.01-10.66Q219.98-10.66 219.98-7.97L219.98-7.97L219.98-7.97Q219.98-6.58 220.75-5.74L220.75-5.74L220.75-5.74Q221.52-4.90 222.77-4.90" fill="#c5523f" stroke="none" stroke-width="none" transform="translate(-115.22500610351562,13.12519512939454)" style="transform:matrix(1, 0, 0, 1, -115.225, 13.1252);fill:rgb(242, 183, 54);animation-play-state:paused" ></path></g></g></g></g></svg>